<svg xmlns="http://www.w3.org/2000/svg" width="64" height="64" viewBox="0 0 64 64">
  <path fill="#FFF" fill-rule="evenodd" d="M176,600 C193.673112,600 208,614.326888 208,632 C208,649.673112 193.673112,664 176,664 C158.326888,664 144,649.673112 144,632 C144,624.0565 146.89434,616.78901 151.685952,611.194598 C151.681705,611.302262 151.68,611.410932 151.68,611.52 C151.68,616.478747 155.204681,620.614262 159.885368,621.557867 C157.933602,624.563306 156.8,628.14927 156.8,632 C156.8,642.603867 165.396133,651.2 176,651.2 C186.603867,651.2 195.2,642.603867 195.2,632 C195.2,621.396133 186.603867,612.8 176,612.8 C174.635289,612.8 173.303833,612.942382 172.019677,613.213102 C172.112267,612.662971 172.16,612.09706 172.16,611.52 C172.16,607.039272 169.282118,603.23071 165.273928,601.841885 C168.626375,600.649402 172.23735,600 176,600 Z M161.92,605.12 C165.454622,605.12 168.32,607.985378 168.32,611.52 C168.32,615.054622 165.454622,617.92 161.92,617.92 C158.385378,617.92 155.52,615.054622 155.52,611.52 C155.52,607.985378 158.385378,605.12 161.92,605.12 Z" transform="translate(-144 -600)"/>
</svg>
